<svg width="50" height="50" viewBox="0 0 50 50" fill="none" xmlns="http://www.w3.org/2000/svg">
<circle cx="25" cy="25" r="25" fill="white"/>
<path d="M19.8779 38.045C19.8479 37.745 19.8479 37.445 19.8779 37.145C20.9579 37.055 21.7229 36.965 22.1729 36.875C22.6529 36.785 22.9379 36.575 23.0279 36.245C23.1479 35.885 23.2079 35.315 23.2079 34.535V7.85H17.4929C16.2929 7.85 15.3929 7.985 14.7929 8.255C14.1929 8.525 13.7279 9.005 13.3979 9.695C13.0679 10.355 12.7229 11.33 12.3629 12.62C12.0929 12.65 11.8079 12.65 11.5079 12.62C11.6579 11.57 11.7929 10.505 11.9129 9.425C12.0329 8.315 12.1379 7.31 12.2279 6.41C13.6379 6.47 15.3329 6.515 17.3129 6.545C19.2929 6.545 21.8729 6.545 25.0529 6.545C28.2929 6.545 30.8879 6.545 32.8379 6.545C34.7879 6.515 36.4679 6.47 37.8779 6.41C37.9379 7.28 38.0279 8.27 38.1479 9.38C38.2679 10.49 38.3879 11.57 38.5079 12.62C38.1779 12.65 37.8779 12.65 37.6079 12.62C37.2179 11.33 36.8579 10.34 36.5279 9.65C36.1979 8.96 35.7329 8.495 35.1329 8.255C34.5629 7.985 33.6779 7.85 32.4779 7.85H26.8079V34.13C26.8079 35.03 26.8529 35.69 26.9429 36.11C27.0629 36.5 27.3479 36.755 27.7979 36.875C28.2779 36.965 29.0579 37.055 30.1379 37.145C30.1679 37.445 30.1679 37.745 30.1379 38.045C29.6879 38.045 29.1329 38.03 28.4729 38C27.8429 38 27.2129 38 26.5829 38C25.9529 37.97 25.4279 37.955 25.0079 37.955C24.3779 37.955 23.5379 37.97 22.4879 38C21.4379 38.03 20.5679 38.045 19.8779 38.045Z" fill="black"/>
</svg>
